# xmcd
#
# Track frame offsets:
#	150
#	13201
#	26402
#	39603
#	53779
#	66680
#	78231
#	91282
#	106508
#	118884
#	133810
#	146036
#	159612
#	171763
#	184964
#	197265
#	210466
#	224792
#	239268
#	251419
#	264470
#	277821
#	292447
#
# Disc length: 4087 seconds
#
# Revision: 0
# Processed by: cddbd v1.4PL0 Copyright (c) Steve Scherf et al.
# Submitted via: audiograbber 1.81.02
#
DISCID=5f0ff517
DTITLE=Various Artist - Twenty First Street Stomp
DYEAR=2001
DGENRE=Blues
TTITLE0=Stump Johnson - Kind Babe Blues
TTITLE1=Henry Brown - Henry Brown Blues
TTITLE2=Mary Johnson - Black Men Blues
TTITLE3=Sparks Brothers - 4-11-44
TTITLE4=Eddie Miller - Good Jelly Blues
TTITLE5=Peetie Wheatstraw - Ice And Snow Blues
TTITLE6=Charles 'Speck' Pertum - Harvest Moon Blues
TTITLE7=Charlie McFadden - Low Down Rounders
TTITLE8=Roosevelt Sykes - Drinkin Woman Blues
TTITLE9=Walter Davis - West Coast Blues
TTITLE10=Stump Johnson - Don't Give My Lard Away
TTITLE11=Stump Johnson - Bound To Be A Monkey
TTITLE12=Henry Brown - Twenty First St Stomp
TTITLE13=Eddie Miller - Whoopee
TTITLE14=Sparks Brothers - East Chicago Blues
TTITLE15=James Gordon - Neck Bones Blues
TTITLE16=Dorothy Baker - Steady Grinding Blues
TTITLE17=Robert Peeples - Fat Greasy Baby
TTITLE18=Mary Johnson - No Good Town Blues
TTITLE19=Mary Johnson - Death Cell Blues
TTITLE20=Tecumesh McDowell - So Called Friend Blues
TTITLE21=Milton Sparks - Grinder Man Blues
TTITLE22=Sparks Brothers - 61 Highway
EXTD=Yazoo Records 2061\n© 2002
EXTT0=
EXTT1=
EXTT2=
EXTT3=
EXTT4=
EXTT5=
EXTT6=
EXTT7=
EXTT8=
EXTT9=
EXTT10=
EXTT11=
EXTT12=
EXTT13=
EXTT14=
EXTT15=
EXTT16=
EXTT17=
EXTT18=
EXTT19=
EXTT20=
EXTT21=
EXTT22=
PLAYORDER=
